<?xml version="1.0" encoding="utf-8"?>

<!DOCTYPE svg PUBLIC "-//W3C//DTD SVG 1.1//EN" "http://www.w3.org/Graphics/SVG/1.1/DTD/svg11.dtd">
<!-- Uploaded to: SVG Repo, www.svgrepo.com, Generator: SVG Repo Mixer Tools -->
<svg height="800px" width="800px" version="1.1" id="_x32_" xmlns="http://www.w3.org/2000/svg" xmlns:xlink="http://www.w3.org/1999/xlink" 
	 viewBox="0 0 512 512"  xml:space="preserve">
<style type="text/css">
	.st0{fill:#000000;}
</style>
<g>
	<path class="st0" d="M96.759,291.648h0.014c0.014-0.014,0.014-0.014,0.014-0.014L96.759,291.648z"/>
	<path class="st0" d="M126.234,0v20.99v265.866c-9.639,0.279-19.543,1.646-29.461,4.792c-21.136,6.652-38.9,18.893-51.566,34.426
		c-12.627,15.534-20.247,34.573-20.261,54.528c0,7.673,1.142,15.44,3.532,23.034c5.748,18.322,18.042,33.099,33.404,42.884
		c15.388,9.825,33.868,14.977,53.213,14.99c11.019,0,22.332-1.687,33.51-5.192c19.225-6.054,36.18-16.622,49.244-30.124
		c13.011-13.503,22.318-30.177,24.775-48.686l0.145-1.141V142.325l167.751,31.918v163.196c-9.347,0.332-18.933,1.646-28.544,4.7
		l4.207-1.328L362,342.126c-21.149,6.678-38.928,18.933-51.579,34.479c-12.626,15.508-20.248,34.534-20.261,54.489
		c0,7.66,1.142,15.426,3.532,23.021c5.736,18.309,18.016,33.086,33.378,42.884c15.387,9.838,33.868,14.976,53.212,15.002
		c11.034,0,22.359-1.7,33.524-5.204h0.04c19.981-6.319,37.254-17.551,50.146-31.877c12.852-14.3,21.494-31.93,23.009-50.996
		l0.053-0.704V62.188L126.234,0z M451.71,421.466c-0.822,9.864-5.575,20.459-14.006,29.833
		c-8.471,9.426-20.473,17.366-34.453,21.761c-7.806,2.443-15.56,3.584-22.969,3.584c-13.024,0.014-24.986-3.518-34.161-9.412
		c-9.2-5.936-15.599-13.915-18.706-23.726c-1.301-4.129-1.913-8.244-1.913-12.412c-0.012-10.781,4.196-22.159,12.347-32.183
		c8.112-9.984,20.049-18.403,34.679-23.036l0.12-0.039c7.302-2.31,14.618-3.346,21.8-3.346c3.785,0,7.516,0.292,11.152,0.824
		l20.261,3V144.98L187.426,99.628v273.95c-1.328,9.161-6.439,19.198-15.016,28.066c-8.723,9.068-20.831,16.703-34.387,20.952
		c-7.767,2.43-15.52,3.558-22.928,3.558c-13.024,0.026-24.987-3.532-34.174-9.414c-9.214-5.934-15.613-13.901-18.72-23.699
		c-1.301-4.129-1.913-8.258-1.913-12.44c-0.012-10.795,4.196-22.186,12.347-32.222c8.126-9.998,20.088-18.428,34.759-23.022
		l-2.816,0.877l2.855-0.903c7.382-2.337,14.737-3.359,21.986-3.359c3.956,0,7.887,0.332,11.763,0.928l20.393,3.173V41.954
		L451.71,91.967V421.466z"/>
	<path class="st0" d="M99.561,290.758l-2.775,0.876c0.014,0,0.014,0,0.014,0L99.561,290.758z"/>
</g>
</svg>