<?xml version="1.0" encoding="iso-8859-1"?>
<!-- Uploaded to: SVG Repo, www.svgrepo.com, Generator: SVG Repo Mixer Tools -->
<!DOCTYPE svg PUBLIC "-//W3C//DTD SVG 1.1//EN" "http://www.w3.org/Graphics/SVG/1.1/DTD/svg11.dtd">
<svg fill="#000000" height="800px" width="800px" version="1.1" id="Capa_1" xmlns="http://www.w3.org/2000/svg" xmlns:xlink="http://www.w3.org/1999/xlink" 
	 viewBox="0 0 444.605 444.605" xml:space="preserve">
<path id="XMLID_1406_" d="M222.303,314.605c-25.857,0-53.348,7.542-72.5,24.385V56.266c11.383,15.707,19.596,21.934,28.47,29.258
	c36.274,29.93,81.42,67.179,45.739,138.294c-2.477,4.937-0.483,10.945,4.454,13.423c4.935,2.475,10.945,0.484,13.422-4.454
	c18.657-37.184,20.096-71.601,4.278-102.296c-15.235-29.563-43.301-50.305-62.919-66.835c-17.701-14.917-30.207-39.71-33.444-46.546
	V10c0-5.522-4.477-10-10-10s-10,4.478-10,10c0,4.708,0,364.889,0,369.605c0,37.17,42.435,65,92.5,65c50.058,0,92.5-27.827,92.5-65
	C314.803,342.428,272.351,314.605,222.303,314.605z M222.303,424.605c-39.299,0-72.5-20.607-72.5-45s33.201-45,72.5-45
	s72.5,20.607,72.5,45S261.602,424.605,222.303,424.605z"/>
</svg>